<?xml version="1.0" encoding="utf-8"?>
<!-- Generator: Adobe Illustrator 18.1.1, SVG Export Plug-In . SVG Version: 6.00 Build 0)  -->
<svg version="1.1" id="Ebene_1" xmlns="http://www.w3.org/2000/svg" xmlns:xlink="http://www.w3.org/1999/xlink" x="0px" y="0px"
	 viewBox="0 0 1800.2 231" enable-background="new 0 0 1800.2 231" xml:space="preserve">
<g>
	<linearGradient id="SVGID_1_" gradientUnits="userSpaceOnUse" x1="885.6452" y1="122.5316" x2="885.6452" y2="21.8216">
		<stop  offset="0" style="stop-color:#00ACFF"/>
		<stop  offset="1" style="stop-color:#0034FF"/>
	</linearGradient>
	<path fill="url(#SVGID_1_)" d="M17.2,21.8h57.5v14.6H17.2V21.8z M17.2,50.7h57.5V65H17.2V50.7z M17.2,79.6h57.5v14.3H17.2V79.6z
		 M161.1,21.8h57.8v14.6h-57.8V21.8z M161.1,50.7h57.8V65h-57.8V50.7z M161.1,79.6h57.8v14.3h-57.8V79.6z M240.2,50.7h57.5V65h-57.5
		V50.7z M240.2,79.6h57.5v14.3h-57.5V79.6z M355.5,50.7H413V65h-57.5V50.7z M355.5,79.6H413v14.3h-57.5V79.6z M576.9,65H433V50.7
		h143.9V65z M433,79.6h57.5v14.3H433V79.6z M548.3,93.9V79.6h57.5v14.3H548.3z M625.8,93.9V79.6h57.5v14.3H625.8z M654.4,50.7h115.3
		V65H654.4V50.7z M741.1,93.9V79.6h57.5v14.3H741.1z M818.6,50.7h172.8V65H818.6V50.7z M818.6,79.6H905v14.3h-86.4V79.6z
		 M1119.6,36.4V21.8h172.8v14.6H1119.6z M1177.1,65h-57.5V50.7h57.5V65z M1119.6,93.9V79.6h57.5v14.3H1119.6z M1321.3,65h-57.8V50.7
		h57.8V65z M1263.5,93.9V79.6h57.8v14.3H1263.5z M1486.5,50.7V65h-115.3V50.7H1486.5z M1515.4,79.6v14.3h-57.5V79.6H1515.4z
		 M1535.4,21.8h86.4v14.6h-86.4V21.8z M1564,50.7h57.8V65H1564V50.7z M1564,79.6h57.8v14.3H1564V79.6z M1667.7,21.8h86.4v14.6h-86.4
		V21.8z M1696.3,50.7h57.8V65h-57.8V50.7z M1696.3,79.6h57.8v14.3h-57.8V79.6z M17.2,108.2h201.7v14.3H17.2V108.2z M240.2,108.2
		h57.5v14.3h-57.5V108.2z M355.5,122.5v-14.3H413v14.3H355.5z M433,108.2h57.5v14.3H433V108.2z M548.3,122.5v-14.3h57.5v14.3H548.3z
		 M625.8,122.5v-14.3h57.5v14.3H625.8z M741.1,122.5v-14.3h57.5v14.3H741.1z M818.6,122.5v-14.3h57.5v14.3H818.6z M1292.4,122.5
		h-172.8v-14.3h172.8V122.5z M1515.4,108.2v14.3h-144.2v-14.3H1515.4z M1564,108.2h57.8v14.3H1564V108.2z M1696.3,108.2h57.8v14.3
		h-57.8V108.2z"/>
	<linearGradient id="SVGID_2_" gradientUnits="userSpaceOnUse" x1="900.09" y1="209.2015" x2="900.09" y2="137.1116">
		<stop  offset="0" style="stop-color:#FF0100"/>
		<stop  offset="1" style="stop-color:#F7A308"/>
	</linearGradient>
	<path fill="url(#SVGID_2_)" d="M17.2,137.1h57.5v14.3H17.2V137.1z M17.2,166h57.5v14.3H17.2V166z M17.2,194.6h57.5v14.6H17.2V194.6
		z M161.1,137.1h57.8v14.3h-57.8V137.1z M161.1,166h57.8v14.3h-57.8V166z M161.1,194.6h57.8v14.6h-57.8V194.6z M268.8,151.4v-14.3
		H413v14.3H268.8z M268.8,194.6h115.3v14.6H268.8V194.6z M355.5,180.3V166H413v14.3H355.5z M433,151.4v-14.3h143.9v14.3H433z
		 M433,180.3V166h57.5v14.3H433z M433,209.2v-14.6h57.5v14.6H433z M625.8,137.1h143.9v14.3H625.8V137.1z M683.3,180.3h-57.5V166
		h57.5V180.3z M769.7,209.2H654.4v-14.6h115.3V209.2z M818.6,151.4v-14.3h57.5v14.3H818.6z M818.6,180.3V166h57.5v14.3H818.6z
		 M818.6,209.2v-14.6h57.5v14.6H818.6z M1119.6,151.4v-14.3h57.5v14.3H1119.6z M1177.1,180.3h-57.5V166h57.5V180.3z M1119.6,209.2
		v-14.6h172.8v14.6H1119.6z M1263.5,137.1h57.8v14.3h-57.8V137.1z M1321.3,180.3h-57.8V166h57.8V180.3z M1400.1,137.1v14.3h-57.5
		v-14.3H1400.1z M1342.6,166h57.5v14.3h-57.5V166z M1371.2,194.6h115.3v14.6h-115.3V194.6z M1515.4,151.4h-57.5v-14.3h57.5V151.4z
		 M1457.9,166h57.5v14.3h-57.5V166z M1535.4,194.6h115.3v14.6h-115.3V194.6z M1564,137.1h57.8v14.3H1564V137.1z M1564,166h57.8v14.3
		H1564V166z M1667.7,194.6H1783v14.6h-115.3V194.6z M1696.3,137.1h57.8v14.3h-57.8V137.1z M1696.3,166h57.8v14.3h-57.8V166z"/>
</g>
</svg>
